<svg width="50" height="49" viewBox="0 0 50 49" fill="none" xmlns="http://www.w3.org/2000/svg">
<circle cx="24.9997" cy="24.5661" r="24.3043" fill="url(#paint0_linear_1359_3541)"/>
<path fill-rule="evenodd" clip-rule="evenodd" d="M32.7241 15.6237C32.896 15.6059 33.0695 15.6362 33.2253 15.7111C33.3811 15.786 33.5131 15.9027 33.6065 16.0481L33.6794 16.1659L33.7813 16.3547L33.857 16.5173L33.9346 16.709C34.2291 17.4923 34.4506 18.8562 33.428 20.407C33.3513 20.5216 33.265 20.6295 33.17 20.7295C33.1821 20.8449 33.1726 20.9615 33.1419 21.0735C32.9557 21.7547 32.7214 22.422 32.4408 23.0702C31.9258 24.2508 31.1995 25.4445 30.1759 26.469C28.2596 28.3853 25.7431 29.265 23.7782 29.6753C23.007 29.837 22.305 29.9287 21.7348 29.981L21.2795 30.0165L21.0832 30.0287L20.9636 31.0224L20.872 31.8693L20.8365 32.2544L20.8019 32.7386C20.7973 32.8186 20.7948 32.8987 20.7944 32.9789C20.7944 33.2268 20.6959 33.4645 20.5206 33.6398C20.3453 33.8152 20.1075 33.9136 19.8596 33.9136C19.6117 33.9136 19.3739 33.8152 19.1986 33.6398C19.0233 33.4645 18.9248 33.2268 18.9248 32.9789C18.9248 32.881 18.9279 32.7688 18.9342 32.6423L18.9622 32.2338L19.0024 31.7767L19.0772 31.0551L19.1314 30.5858C19.323 28.9668 19.5483 27.3832 20.054 25.8278C20.6383 24.033 21.6899 21.7344 23.566 19.8592C25.0364 18.3878 26.7742 17.4185 28.339 16.7837L28.7615 16.6183L29.1728 16.4687C29.2402 16.445 29.3071 16.4223 29.3738 16.4005L29.7664 16.2734L30.1422 16.1612L30.5012 16.0612L30.8405 15.9742L31.1583 15.8994L31.4528 15.834L31.9632 15.7359L32.5025 15.6508L32.7241 15.6237ZM32.2548 17.583L31.9538 17.6409L31.608 17.7148L31.22 17.8064L31.0125 17.8606L30.5732 17.9821C30.4211 18.027 30.265 18.0756 30.1048 18.128L29.6122 18.2962C28.1025 18.8421 26.333 19.7358 24.8878 21.181C23.2949 22.7729 22.3639 24.7705 21.832 26.4064C21.6778 26.8803 21.5581 27.3197 21.4674 27.7039L21.3702 28.1357L21.8049 28.0956C22.3391 28.0393 22.8701 27.956 23.3959 27.846C25.1907 27.4711 27.3023 26.6981 28.8532 25.1463C29.6477 24.3527 30.2404 23.4104 30.6797 22.4308C29.7674 22.9169 28.7933 23.3525 28.1007 23.5834C27.8654 23.6617 27.6086 23.6434 27.3869 23.5324C27.1651 23.4214 26.9965 23.2269 26.9182 22.9916C26.8398 22.7564 26.8581 22.4996 26.9691 22.2778C27.0801 22.0561 27.2746 21.8875 27.5099 21.8091C28.1399 21.5997 29.1532 21.1426 30.0843 20.6266C30.546 20.3705 30.9686 20.1106 31.3004 19.8713L31.5117 19.7124L31.6706 19.5806L31.7313 19.5245L31.8202 19.4357L31.8669 19.3768C32.3595 18.6309 32.353 17.9934 32.2548 17.583ZM18.4574 14.2832C18.6323 14.2832 18.8037 14.3323 18.9521 14.4248C19.1005 14.5173 19.2199 14.6496 19.2969 14.8067L19.3417 14.9161L19.4633 15.2694C19.5915 15.6454 19.7982 15.9898 20.0696 16.2798C20.3409 16.5699 20.6708 16.799 21.0374 16.952L21.2104 17.0174L21.5637 17.138C21.7387 17.1978 21.8919 17.3082 22.0042 17.4551C22.1164 17.602 22.1825 17.7789 22.1942 17.9634C22.206 18.1479 22.1627 18.3317 22.0699 18.4916C21.9772 18.6515 21.8391 18.7803 21.6731 18.8618L21.5637 18.9066L21.2104 19.0282C20.8344 19.1564 20.49 19.3631 20.1999 19.6345C19.9098 19.9058 19.6807 20.2357 19.5278 20.6023L19.4623 20.7753L19.3417 21.1286C19.2819 21.3035 19.1716 21.4568 19.0247 21.5691C18.8778 21.6813 18.7009 21.7474 18.5164 21.7591C18.3319 21.7708 18.1481 21.7276 17.9882 21.6348C17.8282 21.5421 17.6994 21.404 17.618 21.238L17.5731 21.1286L17.4516 20.7753C17.3234 20.3993 17.1167 20.0549 16.8453 19.7648C16.5739 19.4747 16.244 19.2456 15.8774 19.0927L15.7045 19.0272L15.3512 18.9066C15.1762 18.8468 15.0229 18.7365 14.9107 18.5896C14.7985 18.4427 14.7323 18.2658 14.7206 18.0813C14.7089 17.8968 14.7522 17.713 14.8449 17.5531C14.9377 17.3931 15.0758 17.2643 15.2418 17.1829L15.3512 17.138L15.7045 17.0165C16.0805 16.8883 16.4249 16.6816 16.7149 16.4102C17.005 16.1388 17.2341 15.8089 17.3871 15.4423L17.4525 15.2694L17.5731 14.9161C17.6361 14.7315 17.7552 14.5713 17.9138 14.4578C18.0724 14.3443 18.2624 14.2833 18.4574 14.2832ZM18.4574 17.2708C18.2363 17.5491 17.9842 17.8012 17.7059 18.0223C17.9851 18.2436 18.2356 18.4941 18.4574 18.7739C18.6787 18.4947 18.9292 18.2442 19.209 18.0223C18.9307 17.8012 18.6786 17.5491 18.4574 17.2708Z" fill="white"/>
<defs>
<linearGradient id="paint0_linear_1359_3541" x1="11.6715" y1="-5.61836" x2="40.6799" y2="53.5745" gradientUnits="userSpaceOnUse">
<stop stop-color="#2ADB7F"/>
<stop offset="1" stop-color="#9FFF64"/>
</linearGradient>
</defs>
</svg>
