<svg width="46" height="46" viewBox="0 0 46 46" fill="none" xmlns="http://www.w3.org/2000/svg">
<rect y="0.554688" width="45.2774" height="45.2774" rx="20.5806" fill="#2ADB7F"/>
<path d="M32.8994 29.7084C32.8994 30.0788 32.8171 30.4596 32.6421 30.83C32.4672 31.2005 32.2408 31.5504 31.9424 31.8797C31.4382 32.4353 30.8825 32.8367 30.2548 33.0939C29.6374 33.3512 28.9685 33.4849 28.2482 33.4849C27.1985 33.4849 26.0769 33.238 24.8935 32.7337C23.7101 32.2295 22.5267 31.5504 21.3536 30.6963C20.1703 29.8319 19.0486 28.8749 17.9784 27.815C16.9185 26.7448 15.9615 25.6231 15.1074 24.45C14.2636 23.2769 13.5844 22.1038 13.0905 20.941C12.5966 19.7679 12.3496 18.6463 12.3496 17.5761C12.3496 16.8764 12.4731 16.2075 12.7201 15.5901C12.967 14.9624 13.3581 14.3861 13.9034 13.8716C14.562 13.2233 15.2824 12.9043 16.0438 12.9043C16.332 12.9043 16.6201 12.966 16.8774 13.0895C17.1449 13.213 17.3816 13.3982 17.5668 13.6658L19.9542 17.0307C20.1394 17.288 20.2732 17.5247 20.3658 17.751C20.4584 17.9671 20.5098 18.1832 20.5098 18.3787C20.5098 18.6257 20.4378 18.8727 20.2937 19.1094C20.16 19.346 19.9644 19.593 19.7175 19.84L18.9354 20.6529C18.8222 20.7661 18.7708 20.8999 18.7708 21.0645C18.7708 21.1468 18.7811 21.2189 18.8016 21.3012C18.8325 21.3835 18.8634 21.4453 18.884 21.507C19.0692 21.8466 19.3882 22.2891 19.841 22.8242C20.304 23.3593 20.798 23.9047 21.3331 24.45C21.8887 24.9954 22.4238 25.4997 22.9692 25.9627C23.5043 26.4155 23.9468 26.7242 24.2967 26.9094C24.3481 26.93 24.4099 26.9609 24.4819 26.9917C24.5642 27.0226 24.6465 27.0329 24.7392 27.0329C24.9141 27.0329 25.0479 26.9712 25.1611 26.858L25.9431 26.0862C26.2004 25.8289 26.4474 25.6334 26.684 25.5099C26.9207 25.3659 27.1574 25.2938 27.4146 25.2938C27.6102 25.2938 27.816 25.335 28.0424 25.4276C28.2687 25.5202 28.5054 25.654 28.7627 25.8289L32.1688 28.2472C32.4363 28.4324 32.6215 28.6485 32.7347 28.9057C32.8376 29.163 32.8994 29.4203 32.8994 29.7084Z" stroke="white" stroke-width="1.54355" stroke-miterlimit="10"/>
<path d="M29.3282 20.1075C29.3282 19.4901 28.8445 18.5433 28.1242 17.7716C27.4656 17.0615 26.5909 16.5059 25.7266 16.5059" stroke="white" stroke-width="1.54355" stroke-linecap="round" stroke-linejoin="round"/>
<path d="M32.9298 20.1075C32.9298 16.1252 29.7089 12.9043 25.7266 12.9043" stroke="white" stroke-width="1.54355" stroke-linecap="round" stroke-linejoin="round"/>
</svg>
