<svg width="35" height="35" viewBox="0 0 35 35" fill="none" xmlns="http://www.w3.org/2000/svg">
<g clip-path="url(#clip0_1359_3510)">
<path d="M33.5758 14.3249L19.5546 14.3242C18.9355 14.3242 18.4336 14.826 18.4336 15.4452V19.9243C18.4336 20.5433 18.9355 21.0453 19.5545 21.0453H27.4505C26.5858 23.2891 24.9721 25.1683 22.9132 26.3622L26.28 32.1905C31.6808 29.067 34.8738 23.5865 34.8738 17.4515C34.8738 16.578 34.8094 15.9535 34.6806 15.2504C34.5827 14.7162 34.1189 14.3249 33.5758 14.3249Z" fill="#167EE6"/>
<path d="M17.6858 27.7745C13.8217 27.7745 10.4484 25.6632 8.63663 22.5391L2.80859 25.8983C5.77444 31.0386 11.3304 34.5 17.6858 34.5C20.8035 34.5 23.7453 33.6606 26.2795 32.1977V32.1897L22.9127 26.3614C21.3727 27.2546 19.5906 27.7745 17.6858 27.7745Z" fill="#12B347"/>
<path d="M26.2812 32.1976V32.1896L22.9144 26.3613C21.3744 27.2545 19.5924 27.7744 17.6875 27.7744V34.4999C20.8052 34.4999 23.7472 33.6605 26.2812 32.1976Z" fill="#0F993E"/>
<path d="M7.22555 17.3123C7.22555 15.4077 7.74534 13.6257 8.63835 12.0858L2.81031 8.72656C1.33937 11.2528 0.5 14.1866 0.5 17.3123C0.5 20.438 1.33937 23.3719 2.81031 25.8981L8.63835 22.5389C7.74534 20.9989 7.22555 19.217 7.22555 17.3123Z" fill="#FFD500"/>
<path d="M17.6858 6.85055C20.2056 6.85055 22.5201 7.74591 24.3279 9.23525C24.774 9.60263 25.4222 9.57611 25.8307 9.16757L29.0044 5.99393C29.4679 5.5304 29.4349 4.77167 28.9397 4.34211C25.9107 1.71437 21.9697 0.125 17.6858 0.125C11.3304 0.125 5.77444 3.58647 2.80859 8.72674L8.63663 12.086C10.4484 8.96179 13.8217 6.85055 17.6858 6.85055Z" fill="#FF4B26"/>
<path d="M24.3297 9.23525C24.7757 9.60263 25.424 9.57611 25.8324 9.16757L29.0061 5.99393C29.4695 5.5304 29.4365 4.77167 28.9414 4.34211C25.9125 1.71431 21.9714 0.125 17.6875 0.125V6.85055C20.2072 6.85055 22.5218 7.74591 24.3297 9.23525Z" fill="#D93F21"/>
</g>
<defs>
<clipPath id="clip0_1359_3510">
<rect width="34.375" height="34.375" fill="white" transform="translate(0.5 0.125)"/>
</clipPath>
</defs>
</svg>
