<svg width="88" height="88" viewBox="0 0 88 88" fill="none" xmlns="http://www.w3.org/2000/svg">
<circle cx="43.6261" cy="43.6256" r="38" transform="rotate(80.729 43.6261 43.6256)" fill="#FF4B26"/>
<circle cx="43.6261" cy="43.6256" r="38" transform="rotate(80.729 43.6261 43.6256)" fill="url(#paint0_linear_1370_3454)"/>
<g clip-path="url(#clip0_1370_3454)">
<path fill-rule="evenodd" clip-rule="evenodd" d="M63.2751 24.6805C63.674 24.6616 64.0703 24.7537 64.42 24.9465C64.7696 25.1393 65.059 25.4253 65.2559 25.7727L65.4089 26.0537L65.6196 26.5023L65.7734 26.8872L65.9277 27.3391C66.5062 29.1837 66.8419 32.3577 64.284 35.8031C64.0924 36.0576 63.8795 36.2954 63.6475 36.5138C63.6606 36.7815 63.6236 37.0493 63.5386 37.3036C63.0215 38.8509 62.3954 40.3598 61.6651 41.8187C60.3255 44.4755 58.4969 47.1353 56.0045 49.3668C51.3385 53.5403 45.4216 55.2458 40.837 55.9398C39.0375 56.2137 37.4066 56.3348 36.0847 56.3822L35.0302 56.4057L34.5759 56.4085L34.1722 58.6849L33.8521 60.6265L33.7207 61.5102L33.5787 62.6225C33.558 62.8064 33.5419 62.9909 33.5306 63.1756C33.4988 63.7474 33.2411 64.2832 32.8142 64.665C32.3874 65.0468 31.8263 65.2434 31.2545 65.2115C30.6827 65.1797 30.147 64.922 29.7652 64.4951C29.3834 64.0683 29.1868 63.5072 29.2187 62.9354C29.2312 62.7098 29.2528 62.4514 29.2835 62.1605L29.4006 61.2219L29.5521 60.1728L29.8173 58.518L30.0026 57.4427C30.6526 53.7331 31.3757 50.1098 32.7419 46.5873C34.32 42.5228 37.0408 37.3564 41.6088 33.2726C45.1892 30.068 49.3217 28.0555 53.0124 26.7927L54.0082 26.4653L54.976 26.1732C55.1343 26.1273 55.2917 26.0834 55.4483 26.0417L56.3701 25.7989L57.2513 25.5885L58.092 25.4039L58.8858 25.247L59.6284 25.1154L60.316 25.0023L61.5058 24.8415L62.7607 24.7146L63.2751 24.6805ZM61.9411 29.1392L61.2394 29.2342L60.4322 29.36L59.5257 29.5215L59.0401 29.6199L58.0112 29.8437C57.6547 29.9276 57.2884 30.0197 56.9123 30.1198L55.7545 30.4446C52.2025 31.5097 48.0064 33.3435 44.4875 36.491C40.6092 39.9579 38.2052 44.4456 36.7682 48.1503C36.3516 49.2235 36.0192 50.2215 35.7607 51.0959L35.481 52.0795L36.4887 52.0426C37.728 51.9815 38.9634 51.8576 40.1902 51.6714C44.3779 51.0375 49.3475 49.5258 53.1237 46.1461C55.0583 44.4178 56.5462 42.3207 57.6854 40.1177C55.5187 41.1216 53.2162 42.0011 51.589 42.4446C51.0362 42.5951 50.4464 42.5198 49.9492 42.2354C49.452 41.951 49.0881 41.4807 48.9377 40.928C48.7872 40.3753 48.8625 39.7854 49.1469 39.2882C49.4313 38.791 49.9016 38.4271 50.4543 38.2767C51.9344 37.8747 54.3302 36.9506 56.5438 35.8801C57.6418 35.3487 58.6497 34.8037 59.4458 34.2944L59.9535 33.955L60.3369 33.6714L60.4843 33.5499L60.7005 33.3565L60.8159 33.2266C62.0479 31.5695 62.1147 30.0982 61.9411 29.1392ZM30.5428 19.7558C30.9462 19.7782 31.3351 19.9134 31.6655 20.1459C31.9958 20.3784 32.2543 20.6989 32.4116 21.071L32.5011 21.329L32.7359 22.1596C32.9834 23.0431 33.4158 23.8641 34.0045 24.5679C34.5931 25.2718 35.3246 25.8427 36.1504 26.2426L36.5409 26.4157L37.3403 26.7392C37.7361 26.8996 38.0754 27.1738 38.3154 27.527C38.5554 27.8803 38.6852 28.2968 38.6885 28.7238C38.6918 29.1508 38.5684 29.5693 38.3339 29.9262C38.0994 30.2831 37.7644 30.5624 37.3711 30.7289L37.1131 30.8184L36.2825 31.0532C35.3989 31.3007 34.578 31.7331 33.8741 32.3218C33.1702 32.9104 32.5994 33.6419 32.1995 34.4677L32.0263 34.8582L31.7028 35.6576C31.5424 36.0534 31.2683 36.3927 30.915 36.6327C30.5618 36.8727 30.1453 37.0025 29.7183 37.0058C29.2912 37.0091 28.8728 36.8857 28.5159 36.6512C28.159 36.4167 27.8796 36.0817 27.7131 35.6884L27.6237 35.4304L27.3888 34.5998C27.1413 33.7162 26.7089 32.8953 26.1203 32.1914C25.5317 31.4875 24.8002 30.9167 23.9744 30.5168L23.5839 30.3436L22.7844 30.0201C22.3887 29.8597 22.0493 29.5856 21.8094 29.2323C21.5694 28.8791 21.4395 28.4626 21.4362 28.0356C21.4329 27.6085 21.5564 27.1901 21.7909 26.8332C22.0253 26.4763 22.3604 26.1969 22.7537 26.0304L23.0117 25.941L23.8423 25.7061C24.7258 25.4586 25.5468 25.0262 26.2507 24.4376C26.9545 23.849 27.5254 23.1175 27.9253 22.2917L28.0984 21.9012L28.4219 21.1017C28.5909 20.6842 28.8862 20.33 29.2665 20.0886C29.6468 19.8473 30.0931 19.7309 30.5428 19.7558ZM30.159 26.6463C29.6132 27.2597 28.9992 27.8089 28.329 28.2831C28.9445 28.8292 29.4901 29.4392 29.9658 30.1131C30.5119 29.4976 31.1219 28.952 31.7958 28.4762C31.1824 27.9305 30.6332 27.3165 30.159 26.6463Z" fill="black"/>
</g>
<defs>
<linearGradient id="paint0_linear_1370_3454" x1="34.31" y1="-89.3744" x2="116.93" y2="-69.4901" gradientUnits="userSpaceOnUse">
<stop stop-color="#2ADB7F"/>
<stop offset="1" stop-color="#9FFF64"/>
</linearGradient>
<clipPath id="clip0_1370_3454">
<rect width="51.8238" height="51.8238" fill="white" transform="translate(19.8828 17) rotate(3.18859)"/>
</clipPath>
</defs>
</svg>
