<svg width="23" height="23" viewBox="0 0 23 23" fill="none" xmlns="http://www.w3.org/2000/svg">
<g clip-path="url(#clip0_1359_3582)">
<path fill-rule="evenodd" clip-rule="evenodd" d="M11.7733 22.3057L11.7621 22.3076L11.6957 22.3403L11.677 22.344L11.6639 22.3403L11.5975 22.3066C11.5876 22.3041 11.5801 22.306 11.5751 22.3122L11.5714 22.3216L11.5555 22.7217L11.5601 22.7404L11.5695 22.7525L11.6667 22.8217L11.6807 22.8254L11.692 22.8217L11.7892 22.7525L11.8004 22.7376L11.8041 22.7217L11.7882 22.3225C11.7857 22.3125 11.7808 22.3069 11.7733 22.3057ZM12.0201 22.2001L12.007 22.2019L11.835 22.2889L11.8256 22.2982L11.8228 22.3085L11.8396 22.7104L11.8443 22.7217L11.8518 22.7291L12.0397 22.8151C12.0515 22.8183 12.0606 22.8158 12.0668 22.8077L12.0705 22.7946L12.0388 22.2206C12.0356 22.2088 12.0294 22.2019 12.0201 22.2001ZM11.3517 22.2019C11.3476 22.1994 11.3426 22.1986 11.3379 22.1997C11.3332 22.2007 11.3291 22.2035 11.3265 22.2075L11.3208 22.2206L11.2891 22.7946C11.2897 22.8058 11.295 22.8133 11.305 22.817L11.319 22.8151L11.5069 22.7282L11.5162 22.7207L11.519 22.7104L11.5358 22.3085L11.533 22.2973L11.5237 22.2879L11.3517 22.2019Z" fill="black"/>
<path fill-rule="evenodd" clip-rule="evenodd" d="M11.7733 22.3057L11.7621 22.3076L11.6957 22.3403L11.677 22.344L11.6639 22.3403L11.5975 22.3066C11.5876 22.3041 11.5801 22.306 11.5751 22.3122L11.5714 22.3216L11.5555 22.7217L11.5601 22.7404L11.5695 22.7525L11.6667 22.8217L11.6807 22.8254L11.692 22.8217L11.7892 22.7525L11.8004 22.7376L11.8041 22.7217L11.7882 22.3225C11.7857 22.3125 11.7808 22.3069 11.7733 22.3057ZM12.0201 22.2001L12.007 22.2019L11.835 22.2889L11.8256 22.2982L11.8228 22.3085L11.8396 22.7104L11.8443 22.7217L11.8518 22.7291L12.0397 22.8151C12.0515 22.8183 12.0606 22.8158 12.0668 22.8077L12.0705 22.7946L12.0388 22.2206C12.0356 22.2088 12.0294 22.2019 12.0201 22.2001ZM11.3517 22.2019C11.3476 22.1994 11.3426 22.1986 11.3379 22.1997C11.3332 22.2007 11.3291 22.2035 11.3265 22.2075L11.3208 22.2206L11.2891 22.7946C11.2897 22.8058 11.295 22.8133 11.305 22.817L11.319 22.8151L11.5069 22.7282L11.5162 22.7207L11.519 22.7104L11.5358 22.3085L11.533 22.2973L11.5237 22.2879L11.3517 22.2019Z" fill="url(#paint0_linear_1359_3582)"/>
<path fill-rule="evenodd" clip-rule="evenodd" d="M18.9409 2.84048C19.1128 2.82271 19.2863 2.85297 19.4421 2.92789C19.5979 3.00281 19.7299 3.11946 19.8233 3.26487L19.8962 3.38265L19.9981 3.57148L20.0738 3.73413L20.1514 3.92576C20.4459 4.70911 20.6674 6.07296 19.6448 7.62376C19.5681 7.73839 19.4818 7.84628 19.3868 7.94626C19.3989 8.06167 19.3894 8.17833 19.3587 8.29026C19.1725 8.97154 18.9382 9.63878 18.6576 10.287C18.1426 11.4676 17.4163 12.6613 16.3927 13.6858C14.4764 15.6021 11.9599 16.4818 9.99502 16.8921C9.22382 17.0538 8.5218 17.1455 7.95158 17.1978L7.49634 17.2333L7.30004 17.2455L7.18038 18.2392L7.08878 19.0861L7.05325 19.4712L7.01867 19.9554C7.01411 20.0354 7.01162 20.1155 7.01119 20.1957C7.01119 20.4436 6.9127 20.6813 6.7374 20.8566C6.56209 21.0319 6.32433 21.1304 6.07641 21.1304C5.82849 21.1304 5.59072 21.0319 5.41542 20.8566C5.24011 20.6813 5.14162 20.4436 5.14162 20.1957C5.14162 20.0978 5.14474 19.9856 5.15097 19.8591L5.17901 19.4506L5.21921 18.9935L5.29399 18.2719L5.34821 17.8026C5.53984 16.1836 5.76512 14.6 6.27084 13.0446C6.85508 11.2498 7.90671 8.95115 9.78282 7.07598C11.2532 5.60463 12.991 4.63526 14.5558 4.00054L14.9783 3.83509L15.3896 3.68552C15.4569 3.66184 15.5239 3.63909 15.5906 3.61728L15.9832 3.49015L16.359 3.37798L16.718 3.27796L17.0573 3.19102L17.3751 3.11624L17.6696 3.0508L18.18 2.95265L18.7193 2.86759L18.9409 2.84048ZM18.4716 4.79978L18.1706 4.85774L17.8248 4.93159L17.4368 5.0232L17.2293 5.07741L16.7899 5.19893C16.6379 5.2438 16.4818 5.29241 16.3216 5.34476L15.829 5.51302C14.3193 6.05893 12.5498 6.95259 11.1046 8.39776C9.51173 9.98969 8.58069 11.9873 8.0488 13.6232C7.89456 14.0971 7.77491 14.5365 7.68423 14.9207L7.58701 15.3525L8.02169 15.3123C8.5559 15.2561 9.08691 15.1728 9.61269 15.0628C11.4075 14.6879 13.5191 13.9148 15.0699 12.3631C15.8645 11.5695 16.4572 10.6272 16.8965 9.64756C15.9842 10.1337 15.0101 10.5693 14.3174 10.8002C14.0822 10.8785 13.8254 10.8602 13.6037 10.7492C13.3819 10.6382 13.2133 10.4437 13.1349 10.2084C13.0566 9.97316 13.0749 9.7164 13.1859 9.49464C13.2969 9.27287 13.4914 9.10428 13.7267 9.02593C14.3567 8.81654 15.37 8.35943 16.3011 7.84343C16.7628 7.5873 17.1854 7.32743 17.5172 7.08813L17.7285 6.92922L17.8874 6.79741L17.9481 6.74133L18.0369 6.65252L18.0837 6.59363C18.5763 5.84767 18.5698 5.21015 18.4716 4.79978ZM4.67423 1.5C4.84911 1.5 5.02048 1.54906 5.16887 1.64159C5.31726 1.73413 5.43672 1.86644 5.51367 2.02348L5.55854 2.13285L5.68006 2.4862C5.80831 2.86215 6.01497 3.20657 6.28635 3.49664C6.55773 3.78672 6.88764 4.01583 7.25423 4.1688L7.42717 4.23424L7.78051 4.35483C7.95545 4.41463 8.10872 4.52496 8.22095 4.67186C8.33318 4.81877 8.39933 4.99566 8.41104 5.18016C8.42275 5.36466 8.37948 5.54849 8.28672 5.7084C8.19395 5.86832 8.05586 5.99713 7.88988 6.07856L7.78051 6.12343L7.42717 6.24496C7.05121 6.37321 6.70679 6.57987 6.41672 6.85125C6.12665 7.12263 5.89753 7.45254 5.74456 7.81913L5.67912 7.99206L5.55854 8.34541C5.49873 8.52035 5.38841 8.67362 5.2415 8.78585C5.09459 8.89808 4.9177 8.96423 4.7332 8.97594C4.5487 8.98765 4.36487 8.94438 4.20496 8.85162C4.04505 8.75885 3.91623 8.62075 3.8348 8.45478L3.78993 8.34541L3.66841 7.99206C3.54015 7.61611 3.33349 7.27169 3.06211 6.98162C2.79073 6.69154 2.46082 6.46243 2.09423 6.30946L1.9213 6.24402L1.56795 6.12343C1.39302 6.06363 1.23974 5.9533 1.12751 5.8064C1.01528 5.65949 0.94913 5.4826 0.937423 5.2981C0.925717 5.1136 0.968981 4.92977 1.06175 4.76986C1.15451 4.60994 1.29261 4.48113 1.45858 4.3997L1.56795 4.35483L1.9213 4.2333C2.29725 4.10505 2.64167 3.89839 2.93174 3.62701C3.22182 3.35563 3.45093 3.02572 3.60391 2.65913L3.66934 2.4862L3.78993 2.13285C3.85291 1.94831 3.97202 1.78809 4.13059 1.67461C4.28916 1.56113 4.47924 1.50008 4.67423 1.5ZM4.67423 4.48757C4.4531 4.76585 4.20095 5.018 3.92267 5.23913C4.20186 5.46036 4.45238 5.71088 4.67423 5.9907C4.89546 5.71151 5.14599 5.46099 5.4258 5.23913C5.14751 5.018 4.89536 4.76585 4.67423 4.48757Z" fill="black"/>
<path fill-rule="evenodd" clip-rule="evenodd" d="M18.9409 2.84048C19.1128 2.82271 19.2863 2.85297 19.4421 2.92789C19.5979 3.00281 19.7299 3.11946 19.8233 3.26487L19.8962 3.38265L19.9981 3.57148L20.0738 3.73413L20.1514 3.92576C20.4459 4.70911 20.6674 6.07296 19.6448 7.62376C19.5681 7.73839 19.4818 7.84628 19.3868 7.94626C19.3989 8.06167 19.3894 8.17833 19.3587 8.29026C19.1725 8.97154 18.9382 9.63878 18.6576 10.287C18.1426 11.4676 17.4163 12.6613 16.3927 13.6858C14.4764 15.6021 11.9599 16.4818 9.99502 16.8921C9.22382 17.0538 8.5218 17.1455 7.95158 17.1978L7.49634 17.2333L7.30004 17.2455L7.18038 18.2392L7.08878 19.0861L7.05325 19.4712L7.01867 19.9554C7.01411 20.0354 7.01162 20.1155 7.01119 20.1957C7.01119 20.4436 6.9127 20.6813 6.7374 20.8566C6.56209 21.0319 6.32433 21.1304 6.07641 21.1304C5.82849 21.1304 5.59072 21.0319 5.41542 20.8566C5.24011 20.6813 5.14162 20.4436 5.14162 20.1957C5.14162 20.0978 5.14474 19.9856 5.15097 19.8591L5.17901 19.4506L5.21921 18.9935L5.29399 18.2719L5.34821 17.8026C5.53984 16.1836 5.76512 14.6 6.27084 13.0446C6.85508 11.2498 7.90671 8.95115 9.78282 7.07598C11.2532 5.60463 12.991 4.63526 14.5558 4.00054L14.9783 3.83509L15.3896 3.68552C15.4569 3.66184 15.5239 3.63909 15.5906 3.61728L15.9832 3.49015L16.359 3.37798L16.718 3.27796L17.0573 3.19102L17.3751 3.11624L17.6696 3.0508L18.18 2.95265L18.7193 2.86759L18.9409 2.84048ZM18.4716 4.79978L18.1706 4.85774L17.8248 4.93159L17.4368 5.0232L17.2293 5.07741L16.7899 5.19893C16.6379 5.2438 16.4818 5.29241 16.3216 5.34476L15.829 5.51302C14.3193 6.05893 12.5498 6.95259 11.1046 8.39776C9.51173 9.98969 8.58069 11.9873 8.0488 13.6232C7.89456 14.0971 7.77491 14.5365 7.68423 14.9207L7.58701 15.3525L8.02169 15.3123C8.5559 15.2561 9.08691 15.1728 9.61269 15.0628C11.4075 14.6879 13.5191 13.9148 15.0699 12.3631C15.8645 11.5695 16.4572 10.6272 16.8965 9.64756C15.9842 10.1337 15.0101 10.5693 14.3174 10.8002C14.0822 10.8785 13.8254 10.8602 13.6037 10.7492C13.3819 10.6382 13.2133 10.4437 13.1349 10.2084C13.0566 9.97316 13.0749 9.7164 13.1859 9.49464C13.2969 9.27287 13.4914 9.10428 13.7267 9.02593C14.3567 8.81654 15.37 8.35943 16.3011 7.84343C16.7628 7.5873 17.1854 7.32743 17.5172 7.08813L17.7285 6.92922L17.8874 6.79741L17.9481 6.74133L18.0369 6.65252L18.0837 6.59363C18.5763 5.84767 18.5698 5.21015 18.4716 4.79978ZM4.67423 1.5C4.84911 1.5 5.02048 1.54906 5.16887 1.64159C5.31726 1.73413 5.43672 1.86644 5.51367 2.02348L5.55854 2.13285L5.68006 2.4862C5.80831 2.86215 6.01497 3.20657 6.28635 3.49664C6.55773 3.78672 6.88764 4.01583 7.25423 4.1688L7.42717 4.23424L7.78051 4.35483C7.95545 4.41463 8.10872 4.52496 8.22095 4.67186C8.33318 4.81877 8.39933 4.99566 8.41104 5.18016C8.42275 5.36466 8.37948 5.54849 8.28672 5.7084C8.19395 5.86832 8.05586 5.99713 7.88988 6.07856L7.78051 6.12343L7.42717 6.24496C7.05121 6.37321 6.70679 6.57987 6.41672 6.85125C6.12665 7.12263 5.89753 7.45254 5.74456 7.81913L5.67912 7.99206L5.55854 8.34541C5.49873 8.52035 5.38841 8.67362 5.2415 8.78585C5.09459 8.89808 4.9177 8.96423 4.7332 8.97594C4.5487 8.98765 4.36487 8.94438 4.20496 8.85162C4.04505 8.75885 3.91623 8.62075 3.8348 8.45478L3.78993 8.34541L3.66841 7.99206C3.54015 7.61611 3.33349 7.27169 3.06211 6.98162C2.79073 6.69154 2.46082 6.46243 2.09423 6.30946L1.9213 6.24402L1.56795 6.12343C1.39302 6.06363 1.23974 5.9533 1.12751 5.8064C1.01528 5.65949 0.94913 5.4826 0.937423 5.2981C0.925717 5.1136 0.968981 4.92977 1.06175 4.76986C1.15451 4.60994 1.29261 4.48113 1.45858 4.3997L1.56795 4.35483L1.9213 4.2333C2.29725 4.10505 2.64167 3.89839 2.93174 3.62701C3.22182 3.35563 3.45093 3.02572 3.60391 2.65913L3.66934 2.4862L3.78993 2.13285C3.85291 1.94831 3.97202 1.78809 4.13059 1.67461C4.28916 1.56113 4.47924 1.50008 4.67423 1.5ZM4.67423 4.48757C4.4531 4.76585 4.20095 5.018 3.92267 5.23913C4.20186 5.46036 4.45238 5.71088 4.67423 5.9907C4.89546 5.71151 5.14599 5.46099 5.4258 5.23913C5.14751 5.018 4.89536 4.76585 4.67423 4.48757Z" fill="url(#paint1_linear_1359_3582)"/>
</g>
<defs>
<linearGradient id="paint0_linear_1359_3582" x1="11.584" y1="21.4165" x2="12.4084" y2="21.6641" gradientUnits="userSpaceOnUse">
<stop stop-color="#2ADB7F"/>
<stop offset="1" stop-color="#9FFF64"/>
</linearGradient>
<linearGradient id="paint1_linear_1359_3582" x1="8.28105" y1="-23.038" x2="29.4585" y2="-17.9848" gradientUnits="userSpaceOnUse">
<stop stop-color="#2ADB7F"/>
<stop offset="1" stop-color="#9FFF64"/>
</linearGradient>
<clipPath id="clip0_1359_3582">
<rect width="22.4348" height="22.4348" fill="white" transform="translate(0 0.564453)"/>
</clipPath>
</defs>
</svg>
