<svg width="46" height="46" viewBox="0 0 46 46" fill="none" xmlns="http://www.w3.org/2000/svg">
<rect y="0.277344" width="45.2774" height="45.2774" rx="20.5806" fill="#2ADB7F"/>
<path d="M21.6109 28.0624H23.669V21.8882H21.6109V28.0624ZM22.6399 19.8302C22.9315 19.8302 23.1761 19.7314 23.3736 19.5338C23.5712 19.3362 23.6697 19.092 23.669 18.8011C23.6683 18.5103 23.5695 18.266 23.3726 18.0685C23.1757 17.8709 22.9315 17.7721 22.6399 17.7721C22.3484 17.7721 22.1041 17.8709 21.9073 18.0685C21.7104 18.266 21.6116 18.5103 21.6109 18.8011C21.6102 19.092 21.709 19.3366 21.9073 19.5348C22.1055 19.7331 22.3497 19.8316 22.6399 19.8302ZM22.6399 33.2076C21.2164 33.2076 19.8787 32.9373 18.6267 32.3967C17.3747 31.8561 16.2857 31.1231 15.3595 30.1977C14.4334 29.2722 13.7004 28.1832 13.1605 26.9305C12.6206 25.6778 12.3503 24.3401 12.3496 22.9173C12.3489 21.4945 12.6192 20.1567 13.1605 18.9041C13.7018 17.6514 14.4348 16.5623 15.3595 15.6369C16.2843 14.7114 17.3733 13.9784 18.6267 13.4378C19.8801 12.8972 21.2178 12.627 22.6399 12.627C24.0621 12.627 25.3998 12.8972 26.6532 13.4378C27.9065 13.9784 28.9956 14.7114 29.9203 15.6369C30.8451 16.5623 31.5784 17.6514 32.1204 18.9041C32.6624 20.1567 32.9323 21.4945 32.9303 22.9173C32.9282 24.3401 32.6579 25.6778 32.1194 26.9305C31.5809 28.1832 30.8478 29.2722 29.9203 30.1977C28.9928 31.1231 27.9038 31.8565 26.6532 32.3977C25.4025 32.939 24.0648 33.209 22.6399 33.2076ZM22.6399 31.1495C24.9381 31.1495 26.8847 30.352 28.4797 28.757C30.0747 27.162 30.8722 25.2154 30.8722 22.9173C30.8722 20.6191 30.0747 18.6725 28.4797 17.0775C26.8847 15.4825 24.9381 14.685 22.6399 14.685C20.3418 14.685 18.3952 15.4825 16.8002 17.0775C15.2052 18.6725 14.4077 20.6191 14.4077 22.9173C14.4077 25.2154 15.2052 27.162 16.8002 28.757C18.3952 30.352 20.3418 31.1495 22.6399 31.1495Z" fill="white"/>
</svg>
