<svg width="46" height="46" viewBox="0 0 46 46" fill="none" xmlns="http://www.w3.org/2000/svg">
<rect width="45.2774" height="45.2774" rx="20.5806" fill="#2ADB7F"/>
<path d="M22.8019 21.4771C22.699 21.4668 22.5755 21.4668 22.4623 21.4771C20.0132 21.3948 18.0684 19.3882 18.0684 16.9185C18.0684 14.3974 20.1058 12.3496 22.6373 12.3496C25.1584 12.3496 27.2062 14.3974 27.2062 16.9185C27.1959 19.3882 25.251 21.3948 22.8019 21.4771Z" stroke="white" stroke-width="1.54355" stroke-linecap="round" stroke-linejoin="round"/>
<path d="M17.6568 25.2737C15.1665 26.9407 15.1665 29.6574 17.6568 31.3141C20.4866 33.2075 25.1275 33.2075 27.9574 31.3141C30.4476 29.6471 30.4476 26.9304 27.9574 25.2737C25.1378 23.3905 20.4969 23.3905 17.6568 25.2737Z" stroke="white" stroke-width="1.54355" stroke-linecap="round" stroke-linejoin="round"/>
</svg>
