<svg width="25" height="25" viewBox="0 0 25 25" fill="none" xmlns="http://www.w3.org/2000/svg">
<path d="M9.92644 5.948C10.5244 4.198 12.9424 4.145 13.6514 5.789L13.7114 5.949L14.5184 8.309C14.7034 8.85023 15.0022 9.34551 15.3949 9.76142C15.7875 10.1773 16.2648 10.5042 16.7944 10.72L17.0114 10.801L19.3714 11.607C21.1214 12.205 21.1744 14.623 19.5314 15.332L19.3714 15.392L17.0114 16.199C16.47 16.3838 15.9746 16.6826 15.5585 17.0753C15.1424 17.4679 14.8153 17.9452 14.5994 18.475L14.5184 18.691L13.7124 21.052C13.1144 22.802 10.6964 22.855 9.98844 21.212L9.92644 21.052L9.12044 18.692C8.93562 18.1506 8.63681 17.6551 8.24418 17.239C7.85155 16.8229 7.37423 16.4959 6.84444 16.28L6.62844 16.199L4.26844 15.393C2.51744 14.795 2.46444 12.377 4.10844 11.669L4.26844 11.607L6.62844 10.801C7.16967 10.6161 7.66495 10.3172 8.08086 9.92457C8.49678 9.53195 8.82365 9.05469 9.03944 8.525L9.12044 8.309L9.92644 5.948ZM11.8194 6.594L11.0134 8.954C10.7318 9.7793 10.2737 10.5333 9.67098 11.1635C9.06824 11.7937 8.33539 12.2849 7.52344 12.603L7.27344 12.694L4.91344 13.5L7.27344 14.306C8.09874 14.5876 8.85274 15.0457 9.48294 15.6485C10.1131 16.2512 10.6044 16.9841 10.9224 17.796L11.0134 18.046L11.8194 20.406L12.6254 18.046C12.9071 17.2207 13.3652 16.4667 13.9679 15.8365C14.5706 15.2063 15.3035 14.7151 16.1154 14.397L16.3654 14.307L18.7254 13.5L16.3654 12.694C15.5401 12.4124 14.7861 11.9543 14.1559 11.3515C13.5258 10.7488 13.0345 10.0159 12.7164 9.204L12.6264 8.954L11.8194 6.594ZM19.8194 2.5C20.0065 2.5 20.1898 2.55248 20.3486 2.65147C20.5073 2.75046 20.6351 2.892 20.7174 3.06L20.7654 3.177L21.1154 4.203L22.1424 4.553C22.3299 4.6167 22.4943 4.73462 22.6147 4.89182C22.7351 5.04902 22.8061 5.23842 22.8187 5.43602C22.8314 5.63362 22.785 5.83053 22.6857 6.00179C22.5863 6.17304 22.4383 6.31094 22.2604 6.398L22.1424 6.446L21.1164 6.796L20.7664 7.823C20.7026 8.01043 20.5846 8.1747 20.4274 8.29499C20.2701 8.41529 20.0807 8.48619 19.8831 8.49872C19.6855 8.51125 19.4886 8.46484 19.3174 8.36538C19.1462 8.26591 19.0084 8.11787 18.9214 7.94L18.8734 7.823L18.5234 6.797L17.4964 6.447C17.309 6.3833 17.1446 6.26538 17.0242 6.10819C16.9038 5.95099 16.8328 5.76158 16.8202 5.56398C16.8075 5.36638 16.8538 5.16947 16.9532 4.99821C17.0526 4.82696 17.2006 4.68906 17.3784 4.602L17.4964 4.554L18.5224 4.204L18.8724 3.177C18.9399 2.97943 19.0674 2.80791 19.2373 2.6865C19.4071 2.56509 19.6107 2.49987 19.8194 2.5Z" fill="black"/>
</svg>
